<svg xmlns="http://www.w3.org/2000/svg" width="1200" height="800" viewBox="0 0 1200 800">
    <defs>
      <marker id="arrow" markerWidth="10" markerHeight="10" refX="9" refY="3" orient="auto" markerUnits="strokeWidth">
        <path d="M0,0 L0,6 L9,3 z" fill="#44556f"/>
      </marker>
    </defs>
    <rect width="100%" height="100%" fill="#f8fbff"/>
    <text x="40" y="50" font-family="Arial" font-size="28" font-weight="700" fill="#122033">CRUD Matrix – Roles vs Features</text>
    <rect x="60" y="110" width="1080" height="560" rx="18" fill="#ffffff" stroke="#bccbe2" stroke-width="2"/><rect x="80" y="140" width="240" height="70" fill="#1d4ed8" rx="10"/><text x="200.0" y="183" text-anchor="middle" font-family="Arial" font-size="20" font-weight="700" fill="#fff">Entity</text><rect x="360" y="140" width="180" height="70" fill="#1d4ed8" rx="10"/><text x="450.0" y="183" text-anchor="middle" font-family="Arial" font-size="20" font-weight="700" fill="#fff">Reader</text><rect x="590" y="140" width="230" height="70" fill="#1d4ed8" rx="10"/><text x="705.0" y="183" text-anchor="middle" font-family="Arial" font-size="20" font-weight="700" fill="#fff">Journalist</text><rect x="860" y="140" width="240" height="70" fill="#1d4ed8" rx="10"/><text x="980.0" y="183" text-anchor="middle" font-family="Arial" font-size="20" font-weight="700" fill="#fff">Editor</text><rect x="80" y="230" width="240" height="78" fill="#f8fbff" stroke="#d8e0ec"/><text x="200.0" y="275" text-anchor="middle" font-family="Arial" font-size="18" fill="#122033">Article</text><rect x="360" y="230" width="180" height="78" fill="#ffffff" stroke="#d8e0ec"/><text x="450.0" y="275" text-anchor="middle" font-family="Arial" font-size="18" fill="#122033">R</text><rect x="590" y="230" width="230" height="78" fill="#ffffff" stroke="#d8e0ec"/><text x="705.0" y="275" text-anchor="middle" font-family="Arial" font-size="18" fill="#122033">CRUD own / R approved</text><rect x="860" y="230" width="240" height="78" fill="#ffffff" stroke="#d8e0ec"/><text x="980.0" y="275" text-anchor="middle" font-family="Arial" font-size="18" fill="#122033">RUD + Approve</text><rect x="80" y="335" width="240" height="78" fill="#f8fbff" stroke="#d8e0ec"/><text x="200.0" y="380" text-anchor="middle" font-family="Arial" font-size="18" fill="#122033">Newsletter</text><rect x="360" y="335" width="180" height="78" fill="#ffffff" stroke="#d8e0ec"/><text x="450.0" y="380" text-anchor="middle" font-family="Arial" font-size="18" fill="#122033">R</text><rect x="590" y="335" width="230" height="78" fill="#ffffff" stroke="#d8e0ec"/><text x="705.0" y="380" text-anchor="middle" font-family="Arial" font-size="18" fill="#122033">CRUD own</text><rect x="860" y="335" width="240" height="78" fill="#ffffff" stroke="#d8e0ec"/><text x="980.0" y="380" text-anchor="middle" font-family="Arial" font-size="18" fill="#122033">RUD + Create</text><rect x="80" y="440" width="240" height="78" fill="#f8fbff" stroke="#d8e0ec"/><text x="200.0" y="485" text-anchor="middle" font-family="Arial" font-size="18" fill="#122033">Publisher</text><rect x="360" y="440" width="180" height="78" fill="#ffffff" stroke="#d8e0ec"/><text x="450.0" y="485" text-anchor="middle" font-family="Arial" font-size="18" fill="#122033">R</text><rect x="590" y="440" width="230" height="78" fill="#ffffff" stroke="#d8e0ec"/><text x="705.0" y="485" text-anchor="middle" font-family="Arial" font-size="18" fill="#122033">R</text><rect x="860" y="440" width="240" height="78" fill="#ffffff" stroke="#d8e0ec"/><text x="980.0" y="485" text-anchor="middle" font-family="Arial" font-size="18" fill="#122033">CR</text><rect x="80" y="545" width="240" height="78" fill="#f8fbff" stroke="#d8e0ec"/><text x="200.0" y="590" text-anchor="middle" font-family="Arial" font-size="18" fill="#122033">Subscribed API</text><rect x="360" y="545" width="180" height="78" fill="#ffffff" stroke="#d8e0ec"/><text x="450.0" y="590" text-anchor="middle" font-family="Arial" font-size="18" fill="#122033">R</text><rect x="590" y="545" width="230" height="78" fill="#ffffff" stroke="#d8e0ec"/><text x="705.0" y="590" text-anchor="middle" font-family="Arial" font-size="18" fill="#122033">R</text><rect x="860" y="545" width="240" height="78" fill="#ffffff" stroke="#d8e0ec"/><text x="980.0" y="590" text-anchor="middle" font-family="Arial" font-size="18" fill="#122033">R</text>
    </svg>